<mxfile host="app.diagrams.net" modified="2023-04-17T01:16:34.781Z" agent="Mozilla/5.0 (Windows NT 10.0; Win64; x64) AppleWebKit/537.36 (KHTML, like Gecko) Chrome/112.0.0.0 Safari/537.36" etag="k3gr8ciMwFrE2TmhFTkc" version="21.1.8" type="device">
  <diagram id="R2lEEEUBdFMjLlhIrx00" name="Page-1">
    <mxGraphModel dx="432" dy="472" grid="1" gridSize="10" guides="1" tooltips="1" connect="1" arrows="1" fold="1" page="1" pageScale="1" pageWidth="850" pageHeight="1100" math="0" shadow="0" extFonts="Permanent Marker^https://fonts.googleapis.com/css?family=Permanent+Marker">
      <root>
        <mxCell id="0" />
        <mxCell id="1" parent="0" />
        <mxCell id="8erZ_WJN0PEyvCFW1K6h-221" value="Customer" style="swimlane;childLayout=stackLayout;horizontal=1;startSize=50;horizontalStack=0;rounded=1;fontSize=14;fontStyle=0;strokeWidth=2;resizeParent=0;resizeLast=1;shadow=0;dashed=0;align=center;arcSize=4;whiteSpace=wrap;html=1;" parent="1" vertex="1">
          <mxGeometry x="800" y="150" width="160" height="180" as="geometry" />
        </mxCell>
        <mxCell id="8erZ_WJN0PEyvCFW1K6h-222" value="&lt;u&gt;ID&lt;/u&gt;&lt;br&gt;name&lt;br&gt;phone&lt;br&gt;email&lt;br&gt;account_type&lt;br&gt;account_number&lt;br&gt;paymet_method&lt;br&gt;credit_card_info" style="align=left;strokeColor=none;fillColor=none;spacingLeft=4;fontSize=12;verticalAlign=top;resizable=0;rotatable=0;part=1;html=1;" parent="8erZ_WJN0PEyvCFW1K6h-221" vertex="1">
          <mxGeometry y="50" width="160" height="130" as="geometry" />
        </mxCell>
        <mxCell id="8erZ_WJN0PEyvCFW1K6h-223" value="Address" style="swimlane;childLayout=stackLayout;horizontal=1;startSize=50;horizontalStack=0;rounded=1;fontSize=14;fontStyle=0;strokeWidth=2;resizeParent=0;resizeLast=1;shadow=0;dashed=0;align=center;arcSize=4;whiteSpace=wrap;html=1;" parent="1" vertex="1">
          <mxGeometry x="1240" y="165" width="160" height="150" as="geometry" />
        </mxCell>
        <mxCell id="8erZ_WJN0PEyvCFW1K6h-224" value="&lt;u&gt;ID&lt;/u&gt;&lt;br&gt;street&lt;br&gt;city&lt;br&gt;state&lt;br&gt;country&lt;br&gt;type" style="align=left;strokeColor=none;fillColor=none;spacingLeft=4;fontSize=12;verticalAlign=top;resizable=0;rotatable=0;part=1;html=1;" parent="8erZ_WJN0PEyvCFW1K6h-223" vertex="1">
          <mxGeometry y="50" width="160" height="100" as="geometry" />
        </mxCell>
        <mxCell id="8erZ_WJN0PEyvCFW1K6h-225" value="Package" style="swimlane;childLayout=stackLayout;horizontal=1;startSize=50;horizontalStack=0;rounded=1;fontSize=14;fontStyle=0;strokeWidth=2;resizeParent=0;resizeLast=1;shadow=0;dashed=0;align=center;arcSize=4;whiteSpace=wrap;html=1;" parent="1" vertex="1">
          <mxGeometry x="801" y="470" width="160" height="210" as="geometry" />
        </mxCell>
        <mxCell id="8erZ_WJN0PEyvCFW1K6h-226" value="&lt;u&gt;ID&lt;/u&gt;&lt;br&gt;recipient_name&lt;br&gt;type&lt;br&gt;weight&lt;br&gt;service_type&lt;br&gt;content_type&lt;br&gt;content_value&lt;br&gt;hazard_status&lt;br&gt;status&lt;br&gt;estimated_delivery_date&lt;br&gt;" style="align=left;strokeColor=none;fillColor=none;spacingLeft=4;fontSize=12;verticalAlign=top;resizable=0;rotatable=0;part=1;html=1;" parent="8erZ_WJN0PEyvCFW1K6h-225" vertex="1">
          <mxGeometry y="50" width="160" height="160" as="geometry" />
        </mxCell>
        <mxCell id="8erZ_WJN0PEyvCFW1K6h-229" value="Shipment" style="swimlane;childLayout=stackLayout;horizontal=1;startSize=50;horizontalStack=0;rounded=1;fontSize=14;fontStyle=0;strokeWidth=2;resizeParent=0;resizeLast=1;shadow=0;dashed=0;align=center;arcSize=4;whiteSpace=wrap;html=1;" parent="1" vertex="1">
          <mxGeometry x="800" y="840" width="160" height="130" as="geometry" />
        </mxCell>
        <mxCell id="8erZ_WJN0PEyvCFW1K6h-230" value="&lt;u&gt;ID&lt;/u&gt;&lt;br&gt;shipment_date&lt;br&gt;shipment_time&lt;br&gt;delivered_status&lt;br&gt;delivered_time&lt;br&gt;" style="align=left;strokeColor=none;fillColor=none;spacingLeft=4;fontSize=12;verticalAlign=top;resizable=0;rotatable=0;part=1;html=1;" parent="8erZ_WJN0PEyvCFW1K6h-229" vertex="1">
          <mxGeometry y="50" width="160" height="80" as="geometry" />
        </mxCell>
        <mxCell id="8erZ_WJN0PEyvCFW1K6h-231" value="Billing" style="swimlane;childLayout=stackLayout;horizontal=1;startSize=50;horizontalStack=0;rounded=1;fontSize=14;fontStyle=0;strokeWidth=2;resizeParent=0;resizeLast=1;shadow=0;dashed=0;align=center;arcSize=4;whiteSpace=wrap;html=1;" parent="1" vertex="1">
          <mxGeometry x="430" y="175" width="160" height="120" as="geometry" />
        </mxCell>
        <mxCell id="8erZ_WJN0PEyvCFW1K6h-232" value="&lt;u&gt;ID&lt;/u&gt;&lt;br&gt;billing_date&lt;br&gt;amout&lt;br&gt;bill_type" style="align=left;strokeColor=none;fillColor=none;spacingLeft=4;fontSize=12;verticalAlign=top;resizable=0;rotatable=0;part=1;html=1;" parent="8erZ_WJN0PEyvCFW1K6h-231" vertex="1">
          <mxGeometry y="50" width="160" height="70" as="geometry" />
        </mxCell>
        <mxCell id="8erZ_WJN0PEyvCFW1K6h-233" value="Transport" style="swimlane;childLayout=stackLayout;horizontal=1;startSize=50;horizontalStack=0;rounded=1;fontSize=14;fontStyle=0;strokeWidth=2;resizeParent=0;resizeLast=1;shadow=0;dashed=0;align=center;arcSize=4;whiteSpace=wrap;html=1;" parent="1" vertex="1">
          <mxGeometry x="410" y="845" width="160" height="120" as="geometry" />
        </mxCell>
        <mxCell id="8erZ_WJN0PEyvCFW1K6h-234" value="&lt;u&gt;ID&lt;/u&gt;&lt;br&gt;vehicle_type&lt;br&gt;capacity&lt;br&gt;status" style="align=left;strokeColor=none;fillColor=none;spacingLeft=4;fontSize=12;verticalAlign=top;resizable=0;rotatable=0;part=1;html=1;" parent="8erZ_WJN0PEyvCFW1K6h-233" vertex="1">
          <mxGeometry y="50" width="160" height="70" as="geometry" />
        </mxCell>
        <mxCell id="8erZ_WJN0PEyvCFW1K6h-238" style="edgeStyle=orthogonalEdgeStyle;rounded=0;orthogonalLoop=1;jettySize=auto;html=1;exitX=0;exitY=0.5;exitDx=0;exitDy=0;entryX=1;entryY=0.5;entryDx=0;entryDy=0;" parent="1" source="8erZ_WJN0PEyvCFW1K6h-237" target="8erZ_WJN0PEyvCFW1K6h-221" edge="1">
          <mxGeometry relative="1" as="geometry" />
        </mxCell>
        <mxCell id="8erZ_WJN0PEyvCFW1K6h-267" style="edgeStyle=orthogonalEdgeStyle;rounded=0;orthogonalLoop=1;jettySize=auto;html=1;exitX=1;exitY=0.5;exitDx=0;exitDy=0;entryX=0;entryY=0.25;entryDx=0;entryDy=0;" parent="1" source="8erZ_WJN0PEyvCFW1K6h-237" target="8erZ_WJN0PEyvCFW1K6h-224" edge="1">
          <mxGeometry relative="1" as="geometry">
            <mxPoint x="1230" y="240.29411764705878" as="targetPoint" />
          </mxGeometry>
        </mxCell>
        <mxCell id="8erZ_WJN0PEyvCFW1K6h-237" value="Has_Address" style="shape=rhombus;perimeter=rhombusPerimeter;whiteSpace=wrap;html=1;align=center;" parent="1" vertex="1">
          <mxGeometry x="1040" y="210" width="120" height="60" as="geometry" />
        </mxCell>
        <mxCell id="8erZ_WJN0PEyvCFW1K6h-241" style="edgeStyle=orthogonalEdgeStyle;rounded=0;orthogonalLoop=1;jettySize=auto;html=1;exitX=0.5;exitY=0;exitDx=0;exitDy=0;entryX=0.5;entryY=1;entryDx=0;entryDy=0;" parent="1" source="8erZ_WJN0PEyvCFW1K6h-240" target="8erZ_WJN0PEyvCFW1K6h-222" edge="1">
          <mxGeometry relative="1" as="geometry" />
        </mxCell>
        <mxCell id="8erZ_WJN0PEyvCFW1K6h-240" value="Sends" style="shape=rhombus;perimeter=rhombusPerimeter;whiteSpace=wrap;html=1;align=center;" parent="1" vertex="1">
          <mxGeometry x="820" y="370" width="120" height="60" as="geometry" />
        </mxCell>
        <mxCell id="8erZ_WJN0PEyvCFW1K6h-244" style="edgeStyle=orthogonalEdgeStyle;rounded=0;orthogonalLoop=1;jettySize=auto;html=1;exitX=0.5;exitY=0;exitDx=0;exitDy=0;entryX=0.5;entryY=1;entryDx=0;entryDy=0;" parent="1" source="8erZ_WJN0PEyvCFW1K6h-243" target="8erZ_WJN0PEyvCFW1K6h-224" edge="1">
          <mxGeometry relative="1" as="geometry" />
        </mxCell>
        <mxCell id="8erZ_WJN0PEyvCFW1K6h-243" value="Destination / Origin" style="shape=rhombus;perimeter=rhombusPerimeter;whiteSpace=wrap;html=1;align=center;" parent="1" vertex="1">
          <mxGeometry x="1260" y="570" width="120" height="60" as="geometry" />
        </mxCell>
        <mxCell id="8erZ_WJN0PEyvCFW1K6h-289" style="edgeStyle=orthogonalEdgeStyle;rounded=0;orthogonalLoop=1;jettySize=auto;html=1;exitX=0.5;exitY=0;exitDx=0;exitDy=0;entryX=0.5;entryY=1;entryDx=0;entryDy=0;" parent="1" source="8erZ_WJN0PEyvCFW1K6h-248" target="8erZ_WJN0PEyvCFW1K6h-232" edge="1">
          <mxGeometry relative="1" as="geometry" />
        </mxCell>
        <mxCell id="8erZ_WJN0PEyvCFW1K6h-290" style="edgeStyle=orthogonalEdgeStyle;rounded=0;orthogonalLoop=1;jettySize=auto;html=1;exitX=1;exitY=0.5;exitDx=0;exitDy=0;" parent="1" source="8erZ_WJN0PEyvCFW1K6h-248" target="8erZ_WJN0PEyvCFW1K6h-226" edge="1">
          <mxGeometry relative="1" as="geometry" />
        </mxCell>
        <mxCell id="8erZ_WJN0PEyvCFW1K6h-248" value="Charged_For" style="shape=rhombus;perimeter=rhombusPerimeter;whiteSpace=wrap;html=1;align=center;" parent="1" vertex="1">
          <mxGeometry x="450" y="570" width="120" height="60" as="geometry" />
        </mxCell>
        <mxCell id="8erZ_WJN0PEyvCFW1K6h-252" value="" style="endArrow=none;html=1;rounded=0;entryX=0.5;entryY=0;entryDx=0;entryDy=0;exitX=0.5;exitY=1;exitDx=0;exitDy=0;shape=link;" parent="1" source="8erZ_WJN0PEyvCFW1K6h-240" target="8erZ_WJN0PEyvCFW1K6h-225" edge="1">
          <mxGeometry relative="1" as="geometry">
            <mxPoint x="1000" y="410" as="sourcePoint" />
            <mxPoint x="1160" y="410" as="targetPoint" />
          </mxGeometry>
        </mxCell>
        <mxCell id="8erZ_WJN0PEyvCFW1K6h-258" style="edgeStyle=orthogonalEdgeStyle;rounded=0;orthogonalLoop=1;jettySize=auto;html=1;exitX=1;exitY=0.5;exitDx=0;exitDy=0;entryX=0;entryY=0.5;entryDx=0;entryDy=0;shape=link;" parent="1" source="8erZ_WJN0PEyvCFW1K6h-254" target="8erZ_WJN0PEyvCFW1K6h-221" edge="1">
          <mxGeometry relative="1" as="geometry" />
        </mxCell>
        <mxCell id="8erZ_WJN0PEyvCFW1K6h-254" value="Receives" style="shape=rhombus;perimeter=rhombusPerimeter;whiteSpace=wrap;html=1;align=center;" parent="1" vertex="1">
          <mxGeometry x="630" y="210" width="120" height="60" as="geometry" />
        </mxCell>
        <mxCell id="8erZ_WJN0PEyvCFW1K6h-263" value="" style="endArrow=none;html=1;rounded=0;" parent="1" edge="1">
          <mxGeometry relative="1" as="geometry">
            <mxPoint x="590" y="239.5" as="sourcePoint" />
            <mxPoint x="630" y="240" as="targetPoint" />
          </mxGeometry>
        </mxCell>
        <mxCell id="8erZ_WJN0PEyvCFW1K6h-279" style="edgeStyle=orthogonalEdgeStyle;rounded=0;orthogonalLoop=1;jettySize=auto;html=1;exitX=0.5;exitY=1;exitDx=0;exitDy=0;entryX=0.5;entryY=0;entryDx=0;entryDy=0;" parent="1" source="8erZ_WJN0PEyvCFW1K6h-269" target="8erZ_WJN0PEyvCFW1K6h-229" edge="1">
          <mxGeometry relative="1" as="geometry" />
        </mxCell>
        <mxCell id="z5hDpQqUll3AghBkRp01-33" style="edgeStyle=orthogonalEdgeStyle;rounded=0;orthogonalLoop=1;jettySize=auto;html=1;exitX=0.5;exitY=0;exitDx=0;exitDy=0;entryX=0.5;entryY=1;entryDx=0;entryDy=0;fontFamily=Helvetica;fontSize=14;fontColor=default;startSize=50;" parent="1" source="8erZ_WJN0PEyvCFW1K6h-269" target="8erZ_WJN0PEyvCFW1K6h-226" edge="1">
          <mxGeometry relative="1" as="geometry" />
        </mxCell>
        <mxCell id="8erZ_WJN0PEyvCFW1K6h-269" value="Included_In" style="shape=rhombus;perimeter=rhombusPerimeter;whiteSpace=wrap;html=1;align=center;" parent="1" vertex="1">
          <mxGeometry x="820" y="735" width="120" height="60" as="geometry" />
        </mxCell>
        <mxCell id="z5hDpQqUll3AghBkRp01-27" style="edgeStyle=orthogonalEdgeStyle;rounded=0;orthogonalLoop=1;jettySize=auto;html=1;exitX=1;exitY=0.5;exitDx=0;exitDy=0;entryX=0;entryY=0.25;entryDx=0;entryDy=0;fontFamily=Helvetica;fontSize=14;fontColor=default;startSize=50;shape=link;" parent="1" source="8erZ_WJN0PEyvCFW1K6h-280" target="8erZ_WJN0PEyvCFW1K6h-230" edge="1">
          <mxGeometry relative="1" as="geometry" />
        </mxCell>
        <mxCell id="z5hDpQqUll3AghBkRp01-29" style="edgeStyle=orthogonalEdgeStyle;rounded=0;orthogonalLoop=1;jettySize=auto;html=1;exitX=0;exitY=0.5;exitDx=0;exitDy=0;entryX=1;entryY=0.5;entryDx=0;entryDy=0;fontFamily=Helvetica;fontSize=14;fontColor=default;startSize=50;" parent="1" source="8erZ_WJN0PEyvCFW1K6h-280" target="8erZ_WJN0PEyvCFW1K6h-233" edge="1">
          <mxGeometry relative="1" as="geometry" />
        </mxCell>
        <mxCell id="8erZ_WJN0PEyvCFW1K6h-280" value="Uses" style="shape=rhombus;perimeter=rhombusPerimeter;whiteSpace=wrap;html=1;align=center;" parent="1" vertex="1">
          <mxGeometry x="630" y="875" width="120" height="60" as="geometry" />
        </mxCell>
        <mxCell id="8erZ_WJN0PEyvCFW1K6h-293" style="edgeStyle=orthogonalEdgeStyle;rounded=0;orthogonalLoop=1;jettySize=auto;html=1;exitX=0;exitY=0.5;exitDx=0;exitDy=0;entryX=1;entryY=1;entryDx=0;entryDy=0;" parent="1" target="8erZ_WJN0PEyvCFW1K6h-226" edge="1">
          <mxGeometry relative="1" as="geometry">
            <mxPoint x="1050" y="730" as="sourcePoint" />
          </mxGeometry>
        </mxCell>
        <mxCell id="z5hDpQqUll3AghBkRp01-1" value="Warehoue" style="swimlane;childLayout=stackLayout;horizontal=1;startSize=50;horizontalStack=0;rounded=1;fontSize=14;fontStyle=0;strokeWidth=2;resizeParent=0;resizeLast=1;shadow=0;dashed=0;align=center;arcSize=4;whiteSpace=wrap;html=1;" parent="1" vertex="1">
          <mxGeometry x="1490" y="410" width="160" height="90" as="geometry" />
        </mxCell>
        <mxCell id="z5hDpQqUll3AghBkRp01-2" value="&lt;u&gt;ID&lt;/u&gt;&lt;br&gt;name" style="align=left;strokeColor=none;fillColor=none;spacingLeft=4;fontSize=12;verticalAlign=top;resizable=0;rotatable=0;part=1;html=1;" parent="z5hDpQqUll3AghBkRp01-1" vertex="1">
          <mxGeometry y="50" width="160" height="40" as="geometry" />
        </mxCell>
        <mxCell id="z5hDpQqUll3AghBkRp01-4" style="edgeStyle=orthogonalEdgeStyle;rounded=0;orthogonalLoop=1;jettySize=auto;html=1;exitX=0;exitY=0.5;exitDx=0;exitDy=0;entryX=1;entryY=0.25;entryDx=0;entryDy=0;" parent="1" source="z5hDpQqUll3AghBkRp01-3" target="8erZ_WJN0PEyvCFW1K6h-224" edge="1">
          <mxGeometry relative="1" as="geometry" />
        </mxCell>
        <mxCell id="z5hDpQqUll3AghBkRp01-6" style="edgeStyle=orthogonalEdgeStyle;rounded=0;orthogonalLoop=1;jettySize=auto;html=1;exitX=0.5;exitY=1;exitDx=0;exitDy=0;entryX=0.5;entryY=0;entryDx=0;entryDy=0;" parent="1" source="z5hDpQqUll3AghBkRp01-3" target="z5hDpQqUll3AghBkRp01-1" edge="1">
          <mxGeometry relative="1" as="geometry" />
        </mxCell>
        <mxCell id="z5hDpQqUll3AghBkRp01-3" value="Located at" style="shape=rhombus;perimeter=rhombusPerimeter;whiteSpace=wrap;html=1;align=center;" parent="1" vertex="1">
          <mxGeometry x="1510" y="210" width="120" height="60" as="geometry" />
        </mxCell>
        <mxCell id="z5hDpQqUll3AghBkRp01-8" style="edgeStyle=orthogonalEdgeStyle;rounded=0;orthogonalLoop=1;jettySize=auto;html=1;exitX=0.5;exitY=0;exitDx=0;exitDy=0;entryX=0.5;entryY=1;entryDx=0;entryDy=0;" parent="1" target="z5hDpQqUll3AghBkRp01-2" edge="1">
          <mxGeometry relative="1" as="geometry">
            <mxPoint x="1570" y="699.9999999999998" as="sourcePoint" />
          </mxGeometry>
        </mxCell>
        <mxCell id="z5hDpQqUll3AghBkRp01-11" value="" style="endArrow=none;html=1;rounded=0;shape=link;" parent="1" edge="1">
          <mxGeometry relative="1" as="geometry">
            <mxPoint x="1419" y="730" as="sourcePoint" />
            <mxPoint x="1509" y="729.5" as="targetPoint" />
          </mxGeometry>
        </mxCell>
        <mxCell id="z5hDpQqUll3AghBkRp01-12" value="" style="endArrow=none;html=1;rounded=0;shape=link;" parent="1" edge="1">
          <mxGeometry relative="1" as="geometry">
            <mxPoint x="1170" y="730" as="sourcePoint" />
            <mxPoint x="1260" y="729.5" as="targetPoint" />
          </mxGeometry>
        </mxCell>
        <mxCell id="z5hDpQqUll3AghBkRp01-30" value="" style="endArrow=none;html=1;rounded=0;entryX=0;entryY=0.5;entryDx=0;entryDy=0;shape=link;" parent="1" source="8erZ_WJN0PEyvCFW1K6h-226" target="8erZ_WJN0PEyvCFW1K6h-243" edge="1">
          <mxGeometry relative="1" as="geometry">
            <mxPoint x="1070" y="589.91" as="sourcePoint" />
            <mxPoint x="1160" y="589.41" as="targetPoint" />
          </mxGeometry>
        </mxCell>
        <mxCell id="7AaBGT9MjDgjZaZFIUkD-7" value="Warehouse_Package&lt;br&gt;&lt;br&gt;&lt;div style=&quot;text-align: left;&quot;&gt;&lt;u style=&quot;background-color: initial; border-color: var(--border-color);&quot;&gt;&lt;b style=&quot;border-color: var(--border-color);&quot;&gt;ID&lt;/b&gt;&lt;/u&gt;&lt;/div&gt;&lt;div style=&quot;text-align: left;&quot;&gt;&lt;span style=&quot;background-color: initial;&quot;&gt;check_time&lt;/span&gt;&lt;/div&gt;&lt;span style=&quot;&quot;&gt;&lt;div style=&quot;text-align: left;&quot;&gt;&lt;span style=&quot;background-color: initial;&quot;&gt;check_out&lt;/span&gt;&lt;/div&gt;&lt;/span&gt;" style="shape=ext;margin=3;double=1;whiteSpace=wrap;html=1;align=center;" parent="1" vertex="1">
          <mxGeometry x="1260" y="680" width="154" height="110" as="geometry" />
        </mxCell>
        <mxCell id="7AaBGT9MjDgjZaZFIUkD-8" value="" style="line;strokeWidth=1;rotatable=0;dashed=0;labelPosition=right;align=left;verticalAlign=middle;spacingTop=0;spacingLeft=6;points=[];portConstraint=eastwest;" parent="1" vertex="1">
          <mxGeometry x="1267" y="720" width="140" height="10" as="geometry" />
        </mxCell>
        <mxCell id="7AaBGT9MjDgjZaZFIUkD-9" value="Stored_in" style="shape=rhombus;double=1;perimeter=rhombusPerimeter;whiteSpace=wrap;html=1;align=center;" parent="1" vertex="1">
          <mxGeometry x="1060" y="700" width="120" height="60" as="geometry" />
        </mxCell>
        <mxCell id="7AaBGT9MjDgjZaZFIUkD-10" value="Stores" style="shape=rhombus;double=1;perimeter=rhombusPerimeter;whiteSpace=wrap;html=1;align=center;" parent="1" vertex="1">
          <mxGeometry x="1510" y="705" width="120" height="60" as="geometry" />
        </mxCell>
      </root>
    </mxGraphModel>
  </diagram>
</mxfile>
